<?xml version="1.0" encoding="UTF-8" standalone="no"?>
<svg
   version="1.0"
   width="188.3pt"
   height="208.57368pt"
   viewBox="0 0 188.3 208.57368"
   preserveAspectRatio="xMidYMid"
   id="svg1"
   xmlns="http://www.w3.org/2000/svg"
   xmlns:svg="http://www.w3.org/2000/svg">
  <defs
     id="defs1" />
  <metadata
     id="metadata1">
Created by potrace 1.10, written by Peter Selinger 2001-2011
</metadata>
  <g
     transform="matrix(0.05,0,0,-0.05,-55.85,315.57369)"
     fill="#ffffff"
     stroke="none"
     id="g1">
    <path
       d="m 4122,5853 -482,-483 v 315 315 h -50 -50 v -327 -327 l -215,142 c -630,415 -656,430 -684,387 -20,-32 -19,-45 2,-64 38,-34 746,-488 785,-503 87,-34 -54,-38 -1139,-33 l -1172,6 7,-51 6,-52 1160,2 1160,1 -229,-230 c -218,-219 -228,-232 -195,-265 33,-33 47,-23 274,204 l 240,239 V 3635 2140 h 50 50 l 5,1509 5,1508 410,-268 c 487,-320 455,-303 490,-257 36,49 50,37 -360,298 -187,118 -349,224 -360,233 -11,11 200,17 510,16 l 530,-2 6,52 7,52 -592,-5 c -325,-3 -591,-2 -591,4 0,5 219,230 487,500 458,460 486,492 453,523 -33,30 -65,2 -518,-450 z"
       id="path1" />
  </g>
</svg>
