<?xml version="1.0" encoding="UTF-8" standalone="no"?>
<svg
   version="1.0"
   width="1067.3022pt"
   height="1011.0227pt"
   viewBox="0 0 1067.3022 1011.0227"
   preserveAspectRatio="xMidYMid"
   id="svg15"
   xmlns="http://www.w3.org/2000/svg"
   xmlns:svg="http://www.w3.org/2000/svg">
  <defs
     id="defs15" />
  <metadata
     id="metadata1">
Created by potrace 1.10, written by Peter Selinger 2001-2011
</metadata>
  <g
     transform="matrix(0.1,0,0,-0.1,-140,5570)"
     fill="#ffffff"
     stroke="none"
     id="g15">
    <path
       d="m 3905,55690 c -3,-5 -1,-37 5,-70 8,-43 8,-65 0,-80 -12,-23 -28,-287 -30,-505 -1,-27 -5,-114 -11,-193 -7,-100 -7,-147 0,-156 8,-9 8,-29 1,-62 -8,-45 -7,-52 18,-88 38,-55 57,-65 79,-43 16,16 18,35 15,155 -1,75 3,193 9,262 6,69 12,182 15,252 2,70 7,147 9,170 5,44 10,106 21,242 5,72 4,80 -17,102 -17,18 -33,24 -65,24 -24,0 -46,-4 -49,-10 z"
       id="path1" />
    <path
       d="m 5442,55340 c -24,-33 -47,-60 -51,-60 -5,0 -21,-20 -37,-45 -15,-25 -31,-45 -34,-45 -4,0 -25,-26 -48,-58 -23,-31 -54,-66 -69,-77 -73,-54 -200,-180 -239,-239 -37,-55 -43,-70 -34,-86 7,-13 21,-20 40,-20 24,0 36,8 58,41 22,34 120,135 232,241 31,29 102,108 155,172 87,106 145,181 145,186 0,14 -42,50 -58,50 -9,0 -37,-27 -60,-60 z"
       id="path2" />
    <path
       d="m 2834,55346 c -3,-8 11,-48 30,-90 20,-42 36,-79 36,-82 0,-3 19,-45 43,-92 46,-93 82,-151 188,-309 37,-54 77,-117 90,-141 13,-24 29,-51 34,-60 114,-196 136,-225 159,-216 12,5 13,11 3,32 -9,22 -101,183 -137,242 -5,8 -18,32 -30,53 -11,21 -37,62 -58,90 -77,106 -136,202 -184,298 -26,55 -48,103 -48,108 0,4 -13,33 -30,64 -16,31 -30,63 -30,71 0,7 -11,21 -25,30 -30,20 -34,20 -41,2 z"
       id="path3" />
    <path
       d="m 2004,55055 c -5,-11 25,-45 99,-116 59,-55 147,-154 198,-222 51,-67 95,-124 98,-127 4,-3 24,-27 45,-55 22,-27 54,-65 72,-82 18,-18 39,-41 46,-50 23,-32 56,-55 67,-48 14,8 -2,40 -38,76 -14,14 -44,48 -66,74 -22,27 -54,65 -70,84 -17,20 -64,81 -105,136 -75,99 -246,279 -308,323 -28,20 -33,21 -38,7 z"
       id="path4" />
    <path
       d="m 4514,54670 c -26,-13 -57,-43 -86,-83 -60,-83 -144,-234 -153,-276 -4,-19 -25,-69 -46,-112 -22,-43 -39,-83 -39,-88 0,-6 -13,-23 -30,-38 -16,-14 -30,-31 -30,-37 0,-6 -14,-40 -30,-74 -17,-35 -30,-74 -30,-88 0,-13 -6,-38 -14,-56 -8,-18 -24,-70 -36,-115 -26,-96 -27,-96 -109,-13 -74,75 -122,111 -201,150 -113,57 -204,93 -315,126 -232,70 -394,70 -522,1 -58,-31 -81,-119 -48,-177 18,-32 20,-100 3,-100 -7,1 -24,7 -38,15 -14,8 -48,14 -75,15 -48,0 -53,-3 -102,-53 -52,-55 -75,-109 -54,-130 6,-6 11,-19 11,-28 0,-18 66,-135 81,-145 5,-3 9,-12 9,-21 0,-14 -12,-15 -98,-9 -92,6 -100,5 -132,-16 -77,-53 -98,-124 -60,-205 24,-49 72,-119 98,-140 23,-19 6,-30 -59,-37 -98,-11 -135,-30 -160,-83 -19,-39 -21,-55 -16,-126 4,-44 11,-85 17,-91 5,-5 10,-17 10,-26 0,-8 10,-33 22,-55 12,-22 23,-58 24,-80 3,-68 56,-259 74,-270 6,-3 10,-16 10,-29 0,-40 77,-174 195,-340 40,-55 46,-95 15,-103 -11,-3 -20,-11 -20,-17 0,-6 -9,-28 -19,-49 -21,-41 -31,-74 -37,-126 -3,-18 -13,-45 -23,-60 -10,-14 -22,-37 -26,-51 -4,-14 -16,-40 -27,-59 -13,-24 -16,-37 -9,-44 17,-17 13,-41 -14,-81 -14,-20 -25,-43 -25,-50 0,-8 -7,-17 -15,-20 -12,-4 -14,-14 -10,-40 5,-24 3,-37 -7,-42 -23,-15 -58,-83 -58,-115 0,-16 -8,-46 -19,-67 -10,-20 -22,-55 -25,-77 -4,-22 -15,-48 -23,-57 -10,-11 -13,-28 -10,-45 4,-21 -1,-35 -20,-55 -19,-20 -23,-30 -15,-44 7,-12 3,-26 -15,-52 -17,-26 -22,-43 -17,-64 3,-16 1,-35 -5,-42 -6,-7 -13,-37 -15,-65 -2,-29 -11,-60 -20,-70 -9,-10 -16,-28 -16,-42 -1,-13 -7,-35 -15,-49 -8,-14 -15,-41 -15,-60 0,-19 -9,-46 -20,-60 -11,-14 -20,-38 -20,-53 0,-15 -7,-44 -15,-64 -10,-25 -14,-51 -9,-79 4,-28 1,-51 -9,-70 -10,-19 -12,-35 -7,-45 6,-10 4,-26 -6,-43 -7,-16 -14,-46 -14,-67 0,-38 -16,-131 -27,-159 -9,-21 -32,-117 -42,-170 -4,-25 -13,-57 -19,-73 -7,-15 -13,-58 -16,-95 -2,-43 -11,-79 -24,-102 -15,-25 -22,-62 -27,-135 -6,-76 -14,-114 -34,-160 -22,-48 -25,-65 -17,-87 7,-21 6,-32 -6,-45 -8,-10 -13,-24 -11,-30 3,-7 -3,-37 -11,-66 -15,-51 -27,-146 -28,-227 -1,-19 -5,-38 -11,-41 -12,-8 -17,-375 -6,-444 22,-132 36,-202 47,-222 7,-12 12,-41 12,-65 0,-24 4,-48 8,-54 5,-5 14,-36 21,-69 7,-33 17,-73 22,-90 76,-251 74,-245 148,-395 62,-126 61,-125 132,-220 89,-118 192,-211 425,-385 65,-49 193,-125 209,-125 8,0 16,-4 19,-9 7,-10 102,-56 186,-89 116,-45 166,-53 306,-49 138,3 219,19 449,87 95,28 240,111 322,183 169,149 319,291 348,328 83,107 105,138 105,147 0,5 20,37 45,71 25,34 45,64 45,67 0,3 14,23 30,44 17,21 30,41 30,45 0,4 14,25 31,47 17,21 48,74 69,116 21,42 47,86 59,96 12,11 21,24 21,30 0,6 40,58 90,116 49,58 90,110 90,116 0,14 33,44 48,44 7,0 12,-11 12,-25 0,-25 41,-94 64,-107 14,-8 12,-155 -4,-228 -5,-25 -14,-109 -20,-188 -6,-79 -15,-163 -20,-188 -6,-24 -14,-64 -20,-89 -5,-25 -10,-60 -10,-78 -1,-17 -7,-57 -15,-87 -8,-30 -19,-75 -25,-100 -7,-25 -16,-58 -22,-75 -5,-16 -12,-48 -15,-70 -3,-22 -12,-52 -19,-67 -8,-15 -14,-41 -14,-58 0,-16 -9,-47 -20,-67 -11,-21 -18,-45 -15,-54 3,-9 -2,-33 -10,-53 -9,-21 -15,-48 -14,-60 4,-34 -12,-118 -28,-149 -7,-15 -11,-32 -7,-38 3,-6 -3,-24 -16,-40 -29,-40 -52,-132 -41,-161 5,-13 23,-33 40,-45 59,-44 75,-31 100,87 11,52 29,120 41,150 11,30 25,80 30,110 4,30 13,73 19,95 6,22 11,56 11,76 0,20 6,52 14,70 7,19 14,59 15,89 1,31 6,80 11,110 18,101 39,200 44,209 3,5 6,31 7,57 1,27 8,66 15,87 7,21 13,53 12,71 -1,19 4,47 10,63 9,25 28,200 37,348 7,119 25,228 40,244 19,22 19,25 -5,99 -13,39 -27,135 -40,264 -10,112 -24,219 -29,238 -6,19 -11,51 -11,70 0,19 -6,55 -14,80 -7,25 -14,72 -14,105 -1,33 -8,105 -16,160 -34,225 -53,366 -77,559 -5,44 -13,84 -18,90 -13,16 -22,72 -25,156 -2,51 -9,88 -23,115 -11,22 -24,55 -28,72 -3,18 -11,35 -16,38 -5,4 -9,15 -9,25 0,21 -10,44 -77,187 -24,51 -43,97 -43,103 0,5 -6,24 -14,42 -8,18 -29,80 -46,138 -18,58 -36,112 -41,120 -5,8 -12,22 -16,30 -3,8 -39,71 -80,140 -94,159 -85,143 -128,226 -20,39 -56,93 -79,120 l -43,49 44,57 c 24,32 53,64 65,72 11,8 42,35 67,58 25,24 73,64 106,89 87,66 155,118 287,219 64,50 120,90 123,90 4,0 34,21 67,48 127,100 310,200 417,229 175,46 209,54 243,56 24,1 42,-5 50,-14 19,-23 86,-71 138,-98 48,-26 53,-28 115,-55 22,-10 53,-24 68,-32 16,-8 36,-14 46,-14 9,0 21,-4 27,-9 5,-5 52,-18 105,-30 104,-22 290,-24 339,-3 14,6 41,13 61,17 21,3 53,17 73,30 20,14 43,25 50,25 7,0 30,19 52,43 21,23 59,57 84,76 63,48 120,103 120,116 0,6 11,26 25,45 14,19 25,46 25,61 0,14 15,52 34,82 64,108 77,375 30,626 l -7,34 30,-23 c 27,-19 35,-20 70,-11 44,12 133,94 133,122 0,9 15,36 32,60 32,43 32,46 31,144 -1,74 -7,118 -23,165 -32,94 -43,112 -109,172 -62,56 -131,88 -191,88 -19,0 -41,4 -49,9 -26,17 -66,165 -76,281 -4,47 -14,97 -21,112 -8,15 -14,38 -14,52 0,14 -14,55 -30,90 -30,63 -62,95 -127,129 -18,9 -47,24 -64,33 -23,12 -66,17 -180,19 -140,2 -151,4 -181,27 -71,53 -145,79 -242,85 -70,4 -95,2 -107,-8 -8,-8 -26,-21 -40,-29 -54,-31 -113,-76 -147,-112 -19,-21 -41,-38 -47,-38 -6,0 -22,-11 -34,-24 -13,-13 -35,-27 -49,-31 -15,-4 -41,-17 -59,-31 -17,-13 -34,-24 -38,-24 -3,0 -35,-13 -70,-30 -35,-16 -71,-30 -78,-30 -61,0 -195,-103 -235,-180 -14,-27 -33,-52 -43,-57 -10,-4 -47,-34 -83,-66 -55,-50 -66,-65 -71,-101 -17,-110 58,-284 174,-406 18,-19 37,-44 43,-55 13,-29 32,-61 46,-77 12,-15 27,-233 24,-347 -1,-35 3,-70 8,-76 6,-7 13,-37 17,-66 3,-30 14,-70 23,-89 10,-19 21,-54 25,-77 3,-23 13,-47 21,-54 8,-6 14,-19 14,-28 0,-42 85,-180 166,-270 60,-66 58,-78 -13,-86 -32,-3 -97,-19 -145,-36 -48,-16 -92,-29 -99,-29 -26,0 -221,-105 -263,-141 -24,-21 -48,-39 -52,-39 -4,0 -58,-34 -120,-75 -62,-41 -117,-75 -122,-75 -4,0 -19,-11 -32,-25 -13,-14 -31,-25 -41,-25 -9,0 -40,-16 -69,-35 -29,-19 -55,-35 -59,-35 -3,0 -19,-12 -34,-26 -16,-14 -43,-30 -61,-35 -17,-5 -60,-36 -95,-70 -35,-33 -84,-74 -110,-90 -60,-37 -105,-85 -124,-131 -9,-21 -20,-38 -25,-38 -14,0 -74,-63 -83,-87 -5,-14 -17,-23 -30,-23 -16,0 -19,4 -14,18 4,9 11,73 16,142 4,69 13,142 19,163 6,22 9,44 7,51 -3,6 -1,99 4,206 19,401 28,520 42,545 10,18 18,61 32,160 2,17 10,64 19,105 54,268 67,327 76,342 6,10 10,37 10,62 0,24 7,63 15,86 8,23 15,58 15,77 0,19 5,43 11,54 5,11 14,43 19,72 19,103 38,180 47,186 10,6 52,139 73,229 7,29 25,87 41,128 16,41 29,82 29,91 0,8 9,27 19,42 11,15 23,40 27,57 4,16 13,38 20,49 8,11 14,31 14,45 0,14 6,34 13,45 8,11 26,54 42,95 31,83 47,124 76,188 10,23 19,53 19,65 0,12 6,31 14,42 14,21 18,39 42,185 31,192 -10,367 -106,454 -33,29 -48,36 -83,36 -23,0 -60,-9 -83,-20 z m 135,-112 c 29,-65 53,-224 41,-273 -6,-22 -12,-61 -15,-87 -5,-54 -33,-145 -46,-154 -5,-3 -9,-15 -9,-27 0,-13 -9,-40 -20,-62 -11,-22 -20,-46 -20,-54 0,-24 -50,-122 -66,-128 -7,-3 -14,-13 -14,-22 0,-9 -7,-29 -15,-45 -8,-15 -15,-37 -15,-47 0,-10 -4,-20 -9,-23 -5,-3 -12,-23 -16,-43 -4,-21 -10,-42 -15,-48 -4,-5 -10,-23 -14,-39 -4,-15 -15,-47 -26,-70 -49,-106 -71,-176 -76,-241 -7,-71 -20,-111 -59,-175 -24,-38 -41,-102 -37,-138 2,-12 -4,-32 -13,-44 -8,-13 -15,-35 -15,-50 0,-15 -4,-29 -9,-32 -4,-3 -10,-38 -13,-78 -3,-40 -12,-89 -20,-108 -21,-47 -38,-149 -31,-182 3,-16 -1,-35 -10,-48 -8,-12 -13,-30 -10,-41 3,-10 -2,-37 -11,-59 -10,-26 -16,-70 -16,-124 0,-48 -6,-98 -14,-117 -7,-19 -16,-71 -19,-117 -4,-45 -11,-91 -17,-101 -5,-11 -11,-104 -13,-208 l -3,-188 -45,-5 c -46,-6 -77,-28 -207,-147 -19,-18 -40,-33 -46,-33 -6,0 -40,-19 -76,-41 -70,-45 -136,-64 -270,-81 -237,-29 -466,2 -632,86 -111,55 -116,67 -87,184 12,48 28,96 35,107 8,11 14,29 14,42 0,12 4,24 9,27 5,4 12,24 16,47 4,22 13,43 21,46 7,2 16,15 20,26 3,12 17,36 30,54 13,17 24,37 24,44 0,7 7,20 16,30 24,27 10,63 -38,101 -78,60 -213,207 -227,246 -17,48 -26,122 -14,122 5,0 34,-21 64,-46 59,-52 155,-124 163,-124 3,0 27,-13 53,-28 50,-29 146,-62 179,-62 10,0 38,8 62,18 50,20 76,66 87,150 7,55 -7,133 -30,162 -7,8 -15,22 -19,30 -3,8 -15,30 -27,49 -25,42 -17,51 24,27 108,-65 140,-76 224,-76 h 81 l 49,44 c 45,41 48,47 48,92 -1,65 -10,96 -38,125 -62,66 -147,168 -147,178 0,17 12,14 76,-21 52,-27 69,-31 139,-32 70,-1 84,2 112,23 96,72 61,173 -129,367 -104,106 -135,144 -119,144 5,0 11,-3 13,-7 2,-5 21,-18 43,-31 136,-77 225,-100 310,-81 114,25 155,68 155,162 0,49 -5,61 -43,113 -24,33 -104,115 -178,184 -74,69 -136,128 -139,131 -3,3 -32,22 -66,41 -33,19 -80,49 -104,67 -58,42 -111,41 -95,-2 7,-16 113,-96 196,-147 74,-45 265,-223 283,-264 8,-17 18,-56 21,-87 l 7,-56 -37,-21 c -20,-12 -47,-22 -60,-22 -13,0 -35,-4 -48,-9 -40,-15 -107,11 -220,86 -56,37 -109,71 -118,75 -9,3 -42,23 -75,44 -32,21 -79,49 -104,63 -65,35 -139,101 -155,138 -23,53 -45,152 -45,199 0,49 23,94 49,94 9,0 36,7 61,16 47,17 178,14 245,-6 17,-4 57,-16 90,-25 33,-9 73,-23 88,-31 16,-8 35,-14 42,-14 8,0 43,-13 78,-30 36,-16 70,-30 76,-30 18,0 118,-64 170,-109 27,-24 78,-77 112,-117 34,-41 68,-74 75,-74 20,0 41,39 49,90 4,24 15,62 25,85 9,22 20,58 24,80 4,22 13,56 20,75 8,19 19,53 25,76 6,22 33,71 61,107 27,36 50,69 50,71 0,3 20,49 45,102 25,52 45,100 45,106 0,57 166,267 230,291 26,10 29,8 49,-35 z m -1826,-946 c 17,-10 51,-30 74,-45 24,-15 45,-27 48,-27 3,0 18,-8 33,-19 15,-10 52,-35 82,-54 30,-20 116,-96 190,-169 262,-259 322,-334 327,-410 2,-34 0,-38 -41,-58 -36,-17 -51,-19 -82,-11 -40,9 -94,32 -129,54 -36,23 -100,61 -135,82 -80,46 -135,82 -183,120 -29,23 -78,58 -109,79 -33,21 -58,45 -58,55 0,9 -5,22 -11,28 -6,6 -16,20 -23,31 -6,11 -33,53 -61,94 -55,81 -79,151 -63,183 18,35 71,85 90,85 10,0 33,-8 51,-18 z m 3521,-39 c 30,-3 69,-17 100,-36 66,-40 209,-159 234,-194 35,-50 62,-112 62,-141 0,-34 50,-108 100,-149 19,-15 48,-41 64,-56 17,-16 39,-27 50,-25 17,2 22,12 26,56 4,38 12,60 31,80 14,15 28,34 31,44 9,22 74,32 128,18 25,-7 57,-14 73,-17 31,-6 85,-65 93,-103 4,-14 12,-44 20,-68 8,-23 14,-80 14,-126 0,-71 -4,-90 -28,-137 -41,-80 -79,-127 -127,-154 -50,-30 -56,-30 -84,-6 -30,26 -54,17 -46,-18 6,-28 13,-104 18,-206 2,-33 -2,-74 -9,-92 -7,-17 -15,-58 -19,-90 -4,-32 -12,-67 -19,-78 -6,-11 -20,-47 -30,-80 -34,-109 -51,-146 -83,-182 -18,-19 -33,-40 -33,-46 0,-18 -63,-77 -82,-77 -10,0 -22,10 -27,23 -5,12 -21,37 -35,56 -14,19 -26,46 -26,60 -1,36 -33,76 -55,67 -27,-10 -13,-65 39,-152 25,-41 46,-79 46,-84 0,-17 -71,-80 -90,-80 -20,0 -60,71 -60,108 0,10 -7,27 -15,38 -8,10 -15,28 -15,39 -1,31 -63,100 -83,92 -14,-5 -16,-15 -11,-49 4,-24 13,-53 20,-65 8,-12 14,-29 14,-38 0,-9 16,-50 36,-92 38,-79 38,-77 -6,-103 -9,-5 -43,-12 -77,-15 l -60,-7 -22,63 c -11,34 -21,80 -21,102 0,51 -27,107 -51,107 -17,0 -19,-5 -13,-42 3,-24 10,-63 15,-88 5,-25 10,-67 12,-95 l 2,-50 -50,1 c -27,1 -62,6 -77,12 l -28,11 5,107 c 3,58 10,114 15,124 7,13 4,24 -15,44 -42,46 -84,29 -86,-33 0,-20 -8,-72 -18,-116 -20,-96 -16,-95 -149,-28 -66,34 -109,64 -152,107 -82,84 -143,167 -169,234 -13,32 -35,89 -51,127 -16,39 -36,102 -45,140 -9,39 -21,86 -26,105 -11,38 -22,96 -40,200 -5,36 -15,89 -21,118 -11,51 -6,107 22,277 11,67 53,163 78,181 25,17 122,153 122,170 0,25 209,214 236,214 5,0 27,12 48,26 22,15 55,31 75,36 91,25 219,46 246,41 17,-2 52,-7 79,-10 z m -3592,-381 c 29,-26 93,-79 142,-117 137,-108 238,-198 304,-272 33,-38 87,-98 119,-134 70,-79 90,-127 72,-170 -15,-37 -74,-69 -128,-69 -41,0 -145,48 -207,95 -18,14 -36,25 -39,25 -21,0 -236,187 -315,274 -19,21 -67,70 -105,110 -108,109 -139,188 -98,254 28,46 42,52 125,52 h 78 z m -180,-390 c 25,-20 75,-59 110,-87 78,-61 248,-225 248,-238 0,-6 6,-18 14,-26 8,-9 28,-44 45,-78 41,-83 47,-180 13,-235 -24,-39 -70,-62 -93,-47 -8,5 -22,9 -31,9 -28,0 -165,86 -235,148 -128,112 -133,118 -133,154 0,40 -31,74 -70,80 -19,2 -31,16 -53,62 -24,50 -29,73 -29,138 0,65 4,83 22,105 52,66 121,72 192,15 z m 1411,-1692 c -3,-193 -12,-340 -23,-360 -6,-11 -11,-55 -13,-98 -2,-67 -6,-84 -28,-113 -15,-19 -35,-51 -46,-71 -11,-20 -43,-55 -71,-78 -31,-24 -52,-48 -52,-60 0,-11 -4,-20 -10,-20 -16,0 -75,-112 -72,-136 2,-12 -3,-24 -11,-27 -8,-3 -20,-27 -26,-54 -7,-26 -18,-54 -24,-61 -22,-27 -54,-90 -93,-182 -9,-19 -22,-48 -30,-63 -8,-16 -14,-34 -14,-40 0,-15 -48,-107 -67,-129 -11,-12 -12,-21 -4,-36 8,-15 7,-23 -3,-32 -8,-6 -17,-30 -21,-53 -3,-23 -10,-51 -15,-62 -27,-60 -53,-144 -52,-170 1,-38 -15,-81 -46,-122 -14,-19 -21,-39 -18,-50 3,-10 -1,-31 -9,-47 -8,-15 -12,-32 -9,-37 3,-6 0,-16 -6,-24 -6,-8 -9,-23 -5,-34 4,-14 0,-23 -15,-31 -17,-9 -20,-17 -14,-46 5,-28 2,-39 -15,-55 -11,-11 -21,-26 -21,-34 0,-8 -10,-25 -21,-36 -21,-21 -22,-23 -4,-55 9,-18 35,-47 57,-64 36,-30 41,-31 70,-19 31,13 68,78 68,122 1,12 7,33 15,47 8,14 14,39 15,56 0,16 7,39 15,50 8,10 15,27 15,36 0,10 6,32 14,50 27,67 59,164 76,238 5,19 16,55 25,80 10,25 17,57 17,72 0,15 4,30 9,33 5,4 9,18 9,33 0,15 7,36 15,46 8,11 15,29 15,40 1,12 9,39 20,61 11,22 19,47 20,56 0,8 11,38 25,65 14,27 25,55 25,63 0,8 6,22 14,30 16,19 66,118 92,181 10,25 23,52 30,60 6,8 14,28 18,44 4,16 18,43 32,59 13,16 24,35 24,43 0,29 128,183 153,184 22,1 71,47 84,79 8,20 31,56 52,80 20,25 50,65 66,90 36,55 78,68 95,29 6,-13 26,-50 45,-83 18,-33 43,-80 55,-105 27,-56 60,-121 115,-228 24,-45 46,-104 50,-130 4,-26 13,-60 20,-77 8,-16 23,-61 35,-100 12,-38 30,-86 40,-105 36,-67 52,-106 92,-215 47,-129 57,-169 58,-211 0,-17 6,-37 14,-43 18,-15 25,-86 15,-147 -8,-51 6,-159 24,-182 7,-9 5,-18 -7,-31 -15,-17 -16,-23 -4,-43 7,-13 14,-50 15,-83 1,-33 9,-107 17,-165 35,-244 39,-274 39,-299 0,-14 6,-36 15,-49 10,-16 13,-36 9,-67 -4,-29 -1,-56 9,-81 8,-20 15,-51 14,-68 -1,-17 -1,-35 1,-41 5,-20 9,-62 13,-146 2,-48 9,-97 16,-108 6,-12 8,-30 5,-41 -6,-19 -157,-130 -177,-130 -19,0 -104,-68 -151,-122 -52,-59 -61,-100 -27,-118 27,-15 26,-25 -16,-87 -19,-29 -42,-72 -50,-96 -8,-23 -48,-81 -89,-130 -41,-49 -75,-93 -75,-99 0,-6 -6,-19 -14,-27 -8,-9 -26,-38 -40,-66 -44,-89 -468,-493 -576,-550 -14,-7 -48,-20 -75,-28 -28,-8 -81,-29 -118,-46 -36,-17 -77,-31 -90,-31 -13,0 -57,-8 -98,-19 -277,-69 -396,-54 -683,90 -141,71 -243,140 -399,270 -43,36 -134,144 -164,194 -27,45 -113,225 -113,237 0,7 -7,22 -15,32 -8,11 -15,34 -15,51 0,17 -7,40 -15,51 -8,10 -15,29 -15,41 0,12 -6,37 -14,55 -8,18 -22,62 -31,98 -9,36 -21,79 -27,95 -5,17 -14,53 -18,80 -5,28 -13,64 -18,80 -30,92 -37,159 -37,345 1,107 4,224 8,260 12,111 25,202 37,265 6,33 14,77 17,98 3,21 10,40 14,43 5,3 9,21 9,40 0,20 4,43 10,53 5,10 14,43 19,72 5,30 14,83 21,119 6,36 18,85 26,110 7,25 19,74 24,110 22,135 26,156 38,176 6,12 9,24 6,27 -3,3 1,36 10,74 40,174 49,223 53,288 3,39 10,79 16,90 6,11 12,48 14,82 2,43 12,80 33,125 16,34 30,75 30,90 0,15 5,39 11,55 6,15 14,46 19,68 5,22 23,90 40,150 17,61 36,130 41,155 5,25 15,54 21,64 6,11 12,39 13,63 2,24 7,49 12,56 5,6 15,30 22,52 8,22 22,58 33,80 10,22 23,60 29,84 5,24 20,67 33,95 14,28 34,74 46,101 41,96 41,96 97,45 82,-75 181,-124 270,-135 26,-3 84,-13 128,-22 129,-26 406,-19 488,13 20,8 46,14 57,14 18,0 42,9 135,52 22,10 81,49 130,88 50,38 97,68 105,67 12,-2 15,-22 13,-117 z"
       id="path5" />
    <path
       d="m 6300,53135 c -14,-8 -33,-16 -42,-19 -15,-4 -16,-9 -7,-30 6,-13 22,-29 34,-36 20,-11 30,-9 72,12 94,48 97,50 125,39 35,-13 43,-2 16,26 -19,20 -30,23 -97,22 -43,0 -87,-7 -101,-14 z"
       id="path6" />
    <path
       d="m 5987,52956 c -25,-22 -35,-39 -31,-49 3,-9 1,-31 -5,-50 -10,-28 -8,-42 8,-79 20,-48 60,-94 103,-121 34,-21 139,-23 176,-3 15,7 45,22 67,32 100,46 114,99 32,119 -21,6 -34,2 -50,-12 -42,-38 -134,-83 -169,-83 -63,0 -73,16 -70,119 1,50 7,99 14,110 9,15 8,22 -5,35 -21,22 -26,20 -70,-18 z"
       id="path7" />
    <path
       d="m 5785,52973 c -34,-5 -141,-71 -150,-92 -8,-19 33,-61 61,-61 12,0 28,8 35,17 8,9 32,29 53,45 31,22 50,28 92,28 29,0 56,4 59,10 3,5 -5,21 -19,35 -25,25 -52,29 -131,18 z"
       id="path8" />
    <path
       d="m 6514,52632 c -17,-9 -53,-32 -80,-49 -95,-63 -240,-123 -296,-123 -11,0 -46,-6 -77,-14 -31,-8 -82,-17 -115,-21 l -58,-7 5,-34 c 3,-19 24,-61 46,-92 22,-31 59,-88 83,-127 133,-217 328,-326 446,-251 82,52 107,100 134,256 16,90 15,387 -1,403 -6,6 -11,21 -11,34 0,12 -9,27 -19,33 -24,12 -19,13 -57,-8 z m -10,-109 c 3,-10 4,-99 3,-198 l -3,-181 -48,-72 c -54,-81 -73,-95 -132,-95 -75,0 -142,54 -214,173 -22,36 -50,77 -63,90 -24,26 -57,93 -57,116 0,7 12,16 28,19 15,3 43,10 62,15 19,5 51,11 70,14 70,11 144,36 227,77 46,23 86,46 89,51 9,14 32,9 38,-9 z"
       id="path9" />
    <path
       d="m 1586,54372 c -2,-4 6,-22 19,-39 25,-32 100,-79 245,-155 129,-68 193,-112 242,-166 24,-28 53,-52 63,-54 94,-16 -131,202 -300,292 -33,18 -78,42 -100,53 -22,12 -56,34 -76,49 -35,27 -82,37 -93,20 z"
       id="path10" />
    <path
       d="m 5670,54226 c -41,-27 -113,-56 -137,-56 -10,0 -60,-13 -113,-29 -145,-44 -189,-54 -260,-60 -61,-6 -65,-7 -65,-31 0,-23 4,-25 50,-28 52,-4 206,20 285,43 25,8 74,21 110,30 109,28 199,67 227,98 15,16 15,19 -2,37 -23,26 -51,25 -95,-4 z"
       id="path11" />
    <path
       d="m 1560,53279 c -36,-5 -79,-7 -96,-4 -37,6 -64,-2 -64,-20 0,-7 18,-27 39,-44 32,-26 48,-31 93,-31 29,0 67,4 85,9 17,5 85,12 150,16 65,4 120,8 122,10 9,10 -11,36 -41,51 -39,21 -187,28 -288,13 z"
       id="path12" />
    <path
       d="m 8410,52299 c -201,-11 -390,-28 -425,-38 -16,-5 -88,-12 -158,-16 -71,-3 -140,-10 -153,-16 -14,-5 -51,-9 -82,-9 -31,0 -97,-7 -147,-15 -49,-8 -94,-15 -99,-15 -5,0 -6,-17 -3,-37 4,-21 2,-56 -4,-78 -6,-22 -15,-62 -21,-90 -6,-27 -17,-57 -25,-66 -9,-11 -11,-23 -4,-40 6,-18 3,-34 -10,-61 -13,-25 -21,-70 -25,-130 -4,-51 -10,-97 -14,-103 -14,-19 -19,-75 -10,-99 7,-18 5,-28 -6,-37 -11,-9 -14,-27 -10,-72 3,-41 0,-73 -11,-99 -11,-27 -12,-43 -5,-50 10,-10 -2,-68 -27,-131 -14,-36 -14,-124 0,-132 5,-4 9,-17 8,-28 0,-12 -1,-27 0,-34 2,-18 53,-63 72,-63 19,0 69,68 69,92 0,9 5,20 11,23 5,4 10,35 9,68 0,34 2,82 5,107 4,25 9,63 11,85 11,104 20,161 28,173 4,7 10,48 12,90 3,42 11,93 18,112 7,19 14,69 15,110 1,41 7,93 12,115 6,22 13,51 16,65 3,14 9,30 14,35 10,14 13,132 4,178 l -8,37 h 51 c 28,0 79,6 114,14 35,8 106,17 158,21 52,4 178,16 280,27 209,23 507,37 685,31 132,-4 314,-28 329,-43 6,-6 11,-79 12,-173 4,-317 24,-446 89,-592 22,-50 43,-107 60,-165 8,-30 20,-69 25,-86 6,-16 14,-50 19,-75 16,-74 47,-181 68,-234 30,-76 53,-150 53,-173 0,-12 4,-23 9,-27 5,-3 17,-29 27,-58 9,-28 27,-72 39,-97 93,-185 195,-398 195,-407 0,-6 13,-41 29,-79 16,-38 34,-89 40,-114 20,-76 28,-102 55,-174 17,-44 26,-89 26,-126 0,-34 6,-64 15,-76 8,-11 15,-41 15,-70 0,-27 6,-56 13,-62 7,-8 14,-53 18,-110 4,-67 13,-114 28,-152 23,-55 39,-119 45,-175 4,-29 7,-45 42,-185 9,-36 20,-90 24,-120 4,-31 15,-70 24,-87 9,-18 16,-50 16,-71 0,-24 6,-45 16,-53 10,-8 14,-22 10,-40 -7,-35 11,-149 27,-168 7,-8 13,-35 14,-60 2,-77 18,-168 33,-185 7,-9 13,-31 12,-49 0,-17 4,-37 9,-44 6,-7 8,-17 4,-22 -3,-6 -1,-19 4,-29 7,-13 7,-22 -1,-30 -9,-9 -9,-21 1,-47 7,-20 11,-48 10,-63 -1,-15 3,-52 9,-82 6,-30 11,-68 11,-85 1,-52 8,-99 16,-118 7,-18 3,-78 -11,-143 -5,-27 -3,-33 15,-39 19,-6 21,-14 22,-78 2,-86 3,-65 -11,-165 -8,-64 -8,-87 1,-98 6,-8 9,-28 6,-46 -4,-18 -3,-62 2,-98 6,-52 5,-70 -7,-88 -13,-19 -13,-30 -4,-56 8,-21 9,-54 4,-96 -4,-38 -4,-76 2,-92 9,-27 6,-39 -26,-101 -5,-10 -9,-42 -9,-70 0,-115 -5,-163 -17,-185 -7,-12 -12,-30 -11,-40 2,-9 -4,-39 -13,-67 -9,-27 -20,-70 -24,-95 -3,-24 -11,-52 -17,-62 -9,-14 -6,-23 16,-46 15,-15 27,-36 27,-45 0,-9 12,-23 28,-31 15,-8 36,-23 46,-35 23,-25 42,-26 84,-5 23,11 33,23 34,42 2,30 5,93 11,192 2,36 11,110 20,165 38,225 47,306 47,435 1,74 1,142 2,150 3,77 -14,546 -21,558 -5,10 -9,61 -9,116 v 98 l 75,72 c 42,39 91,88 111,109 40,42 59,45 95,17 42,-33 69,-26 151,43 42,34 116,91 165,126 49,35 107,80 128,100 21,20 58,50 83,66 24,17 98,82 165,145 66,63 143,133 170,155 62,49 205,194 205,208 0,5 13,31 28,56 16,25 32,60 36,76 4,17 25,66 47,110 21,45 39,92 39,106 0,13 13,56 30,94 18,43 30,88 30,116 0,31 7,55 20,72 32,40 64,253 63,417 0,142 -24,364 -42,399 -6,11 -11,36 -11,57 0,20 -7,58 -15,85 -8,27 -22,71 -30,98 -8,27 -15,56 -15,66 0,9 -6,29 -14,43 -8,15 -21,46 -30,70 -9,23 -23,61 -32,85 -9,23 -22,57 -30,75 -8,18 -14,37 -14,43 0,21 -95,206 -137,267 -24,35 -43,65 -43,66 0,2 -29,47 -65,102 -135,207 -212,293 -395,444 -57,47 -151,129 -209,184 -232,216 -320,275 -605,407 -74,33 -125,52 -296,107 -143,46 -198,61 -290,83 -19,4 -53,12 -75,17 -63,16 -219,40 -360,56 -265,31 -332,38 -420,46 -49,5 -114,13 -144,19 -58,12 -178,12 -391,0 z m 960,-135 c 63,-4 122,-10 130,-14 8,-4 47,-11 85,-15 39,-3 88,-12 110,-20 22,-7 60,-16 85,-19 24,-4 49,-11 55,-16 6,-5 31,-11 56,-13 24,-1 54,-8 66,-15 12,-7 31,-12 42,-12 11,0 35,-6 53,-14 18,-8 67,-24 108,-36 41,-13 79,-27 85,-31 5,-5 19,-9 31,-9 12,0 27,-7 34,-15 7,-8 17,-15 23,-15 5,0 39,-13 74,-30 34,-16 70,-30 77,-30 8,0 17,-4 21,-9 3,-6 29,-22 58,-36 139,-70 173,-96 442,-345 38,-36 102,-92 140,-125 117,-99 228,-216 283,-298 28,-43 52,-80 52,-82 0,-2 12,-21 26,-42 14,-21 30,-47 35,-58 5,-11 18,-33 29,-50 34,-53 112,-218 127,-270 8,-27 23,-63 33,-80 9,-16 20,-46 23,-66 3,-20 17,-61 31,-90 13,-30 28,-67 32,-84 4,-16 10,-34 14,-40 10,-13 30,-123 37,-200 3,-33 9,-64 13,-70 4,-5 11,-46 15,-90 4,-44 12,-85 17,-91 9,-13 4,-248 -8,-309 -4,-23 -2,-45 6,-61 11,-20 11,-27 -4,-43 -12,-13 -18,-37 -19,-74 -1,-46 -4,-57 -20,-61 -13,-3 -18,-10 -13,-21 3,-9 1,-26 -5,-37 -6,-11 -11,-41 -11,-67 0,-25 -5,-52 -11,-59 -5,-7 -13,-33 -18,-58 -5,-25 -18,-58 -29,-74 -11,-15 -20,-35 -20,-44 0,-8 -7,-19 -16,-24 -14,-8 -14,-12 -3,-30 11,-18 11,-24 -3,-39 -9,-10 -20,-34 -26,-53 -5,-19 -23,-50 -40,-68 -17,-18 -34,-46 -37,-64 -11,-50 -43,-95 -80,-113 -19,-9 -35,-22 -35,-30 0,-8 -18,-26 -40,-40 -21,-13 -44,-33 -49,-44 -6,-10 -22,-21 -35,-25 -14,-3 -28,-16 -32,-29 -8,-25 -23,-41 -79,-79 -22,-15 -63,-47 -92,-70 -184,-152 -218,-181 -222,-192 -2,-6 -14,-21 -27,-34 -35,-36 -40,-7 -5,37 17,21 31,46 31,55 0,9 20,45 45,80 25,36 45,68 45,71 0,4 17,27 38,51 72,80 105,242 63,309 -31,52 -102,115 -153,137 -53,23 -57,32 -30,62 11,12 26,40 35,64 10,23 29,61 44,85 39,60 55,119 60,219 l 4,86 -58,60 c -86,87 -121,102 -242,102 -118,0 -128,9 -86,81 13,24 25,53 25,64 0,11 7,29 15,39 8,11 15,30 15,43 0,13 13,42 30,64 44,61 48,101 16,143 -46,61 -87,79 -200,85 -75,5 -108,3 -128,-7 -41,-20 -50,-7 -26,39 22,44 25,68 13,139 -16,88 -97,159 -216,187 -41,10 -77,22 -81,27 -3,5 0,19 8,30 8,11 14,28 14,37 0,22 45,113 64,128 8,7 31,39 52,71 21,33 42,60 46,60 4,0 17,19 29,43 12,23 28,46 35,50 8,4 14,12 14,17 0,18 118,165 199,249 44,46 81,90 81,97 0,7 -10,18 -21,25 -17,9 -26,8 -44,-7 -13,-11 -52,-41 -87,-68 -93,-72 -157,-136 -179,-178 -10,-21 -37,-54 -58,-75 -21,-21 -48,-56 -60,-78 -12,-22 -37,-60 -56,-85 -57,-74 -105,-159 -115,-203 -5,-23 -18,-48 -29,-56 -16,-10 -21,-24 -21,-56 0,-38 -4,-45 -38,-69 -21,-14 -45,-26 -53,-26 -26,-1 -104,-41 -121,-63 -16,-21 -17,-21 -36,-4 -11,10 -33,43 -50,75 -16,31 -41,77 -55,102 -14,25 -36,65 -48,90 -12,25 -27,52 -34,60 -6,8 -18,31 -25,50 -14,37 -43,104 -69,159 -9,18 -21,35 -27,38 -13,5 -34,53 -59,138 -10,33 -24,71 -31,85 -17,33 -44,117 -44,137 0,9 -7,39 -15,67 -8,28 -24,87 -34,131 -23,90 -39,138 -74,216 -38,82 -55,145 -68,249 -13,101 -24,492 -14,517 4,11 15,14 43,9 20,-4 89,-9 152,-12 z m 1004,-2119 c 11,-26 13,-43 6,-61 -6,-14 -10,-42 -10,-63 0,-27 -9,-49 -30,-76 -16,-20 -32,-45 -35,-56 -4,-13 -16,-19 -36,-19 -44,0 -143,-101 -217,-223 -23,-38 -44,-30 -61,23 -7,25 -20,57 -27,72 -8,14 -14,37 -14,50 0,12 -7,32 -15,42 -8,11 -15,29 -15,41 0,12 -7,30 -15,41 -8,10 -14,26 -15,34 0,27 68,90 140,128 39,20 88,46 108,57 65,34 96,43 159,44 63,1 63,1 77,-34 z m 303,-301 c 5,-15 -3,-37 -57,-159 -15,-33 -35,-94 -45,-135 -9,-41 -25,-91 -35,-110 -10,-19 -23,-47 -29,-62 -6,-16 -17,-28 -24,-28 -7,0 -24,-14 -37,-31 -86,-107 -224,-249 -242,-249 -4,0 -11,-14 -16,-32 -11,-44 -32,-48 -32,-6 -1,18 -7,44 -15,58 -8,14 -14,40 -15,58 0,18 -12,79 -26,135 -36,137 -40,174 -21,195 8,9 25,37 38,61 72,133 107,165 139,126 7,-8 17,-15 23,-15 23,0 104,45 149,81 26,22 50,39 53,39 4,0 24,14 45,30 36,29 99,58 128,59 7,1 15,-6 19,-15 z m 261,-628 c 2,-47 -2,-69 -23,-112 -14,-30 -26,-72 -27,-94 0,-24 -6,-44 -14,-48 -21,-11 -84,-111 -84,-131 0,-23 -19,-46 -51,-62 -14,-8 -47,-33 -73,-56 -44,-38 -47,-44 -41,-76 6,-29 3,-36 -12,-41 -16,-6 -115,-99 -179,-168 -23,-24 -67,-64 -96,-86 -15,-11 -19,-8 -34,20 -17,32 -21,47 -43,178 -7,36 -18,79 -26,97 -8,17 -15,50 -15,73 0,24 -5,60 -12,81 -10,35 -9,42 15,79 15,22 27,46 27,54 0,23 72,108 178,210 l 40,38 30,-22 c 26,-19 34,-20 70,-11 22,6 42,15 44,19 4,11 165,92 213,108 22,7 56,12 75,11 l 35,-2 z m 51,-595 c 10,-7 13,-27 9,-85 -5,-72 -7,-77 -46,-117 -23,-23 -42,-45 -42,-50 0,-5 -13,-30 -29,-56 -16,-27 -32,-65 -36,-85 -5,-25 -14,-39 -27,-44 -15,-4 -18,-12 -13,-31 5,-21 3,-24 -12,-19 -15,5 -25,-5 -46,-46 -15,-29 -27,-59 -27,-67 0,-8 -6,-11 -15,-7 -10,3 -15,-1 -15,-13 0,-22 -38,-56 -93,-86 -21,-11 -37,-27 -37,-37 0,-10 -6,-18 -14,-18 -8,0 -41,-23 -72,-50 -32,-28 -61,-47 -65,-43 -4,5 -9,33 -12,63 -3,30 -8,69 -12,85 -4,17 -9,53 -11,80 -3,28 -8,57 -11,65 -4,8 -7,22 -8,30 -1,8 -5,27 -9,43 -12,40 16,76 193,253 l 152,152 56,4 c 40,4 60,10 70,24 17,23 99,62 133,63 14,0 31,-3 39,-8 z"
       id="path13" />
    <path
       d="m 7746,52031 c -7,-10 9,-64 30,-103 8,-14 14,-32 14,-38 0,-7 24,-63 54,-124 29,-61 57,-122 61,-136 4,-14 20,-50 35,-80 80,-158 140,-310 140,-352 0,-9 -12,-21 -27,-26 -115,-44 -171,-62 -189,-62 -12,0 -27,-7 -34,-15 -7,-8 -25,-15 -40,-15 -30,0 -115,-34 -125,-50 -3,-6 -20,-10 -36,-10 -44,0 -149,-33 -149,-47 0,-6 12,-26 27,-43 20,-25 32,-31 52,-27 29,5 170,53 216,72 57,25 110,43 175,60 84,22 162,47 175,56 6,4 25,10 43,14 32,7 45,36 22,50 -5,3 -10,17 -10,30 0,13 -6,36 -14,52 -8,15 -21,44 -29,63 -8,19 -42,92 -76,161 -33,69 -61,130 -61,136 0,5 -11,30 -24,54 -54,98 -156,306 -156,318 0,7 -9,26 -21,42 -20,29 -43,37 -53,20 z"
       id="path14" />
    <path
       d="m 5820,51420 c 0,-6 22,-31 48,-58 26,-26 61,-65 77,-87 48,-65 143,-161 255,-258 58,-50 116,-101 129,-114 13,-12 46,-38 75,-57 65,-43 199,-169 190,-179 -4,-4 -22,-7 -39,-7 -39,0 -47,-7 -35,-30 7,-13 5,-21 -5,-30 -12,-10 0,-31 75,-131 50,-65 90,-121 90,-125 0,-3 12,-23 28,-43 52,-70 61,-94 43,-129 -47,-95 -71,-150 -71,-164 0,-10 -7,-34 -16,-55 -9,-21 -24,-55 -33,-75 -9,-21 -20,-38 -25,-38 -10,0 -123,100 -203,180 -31,30 -83,91 -116,135 -142,187 -256,307 -328,342 -25,12 -55,34 -68,47 -28,30 -22,61 9,51 11,-4 107,-9 213,-11 106,-3 217,-6 247,-7 66,-2 77,17 33,57 l -28,26 -245,2 c -135,1 -299,1 -365,-1 -98,-3 -123,-1 -133,12 -7,8 -17,54 -23,103 -5,48 -14,106 -19,128 -6,23 -12,73 -14,111 -21,321 -24,346 -41,365 -10,11 -23,20 -30,20 -28,0 -55,-236 -35,-305 5,-16 14,-75 20,-130 5,-55 14,-125 19,-155 6,-30 13,-83 17,-118 6,-50 13,-69 38,-97 l 31,-36 75,11 c 41,5 85,12 96,16 17,4 38,-12 106,-83 47,-48 105,-110 128,-138 23,-27 68,-75 99,-105 31,-30 92,-102 136,-160 44,-57 120,-142 168,-189 49,-47 111,-120 141,-165 115,-176 146,-225 146,-231 0,-4 11,-21 24,-38 14,-18 30,-43 36,-57 12,-28 22,-44 65,-110 16,-25 34,-49 40,-55 5,-5 28,-33 51,-61 22,-28 67,-74 99,-101 33,-27 67,-58 75,-68 33,-39 155,-108 179,-100 17,5 61,99 61,130 0,7 9,15 19,18 14,3 20,16 24,53 5,49 22,122 52,224 10,30 20,71 24,90 4,19 12,44 18,55 5,11 18,38 29,60 10,22 25,48 33,58 14,17 14,22 -2,49 -22,39 -22,44 13,129 16,41 30,80 30,88 0,8 12,39 26,69 26,56 49,121 64,182 11,45 36,113 61,168 11,24 23,58 26,75 4,18 19,53 35,78 15,25 28,58 28,73 0,14 4,34 10,44 5,9 16,49 25,87 9,39 23,97 30,130 19,82 18,102 -5,115 -26,14 -64,-5 -56,-27 6,-15 -9,-84 -25,-115 -5,-10 -9,-27 -9,-37 0,-11 -4,-23 -10,-26 -5,-3 -10,-15 -10,-26 0,-11 -18,-57 -40,-101 -22,-45 -40,-87 -40,-93 0,-6 -11,-22 -25,-35 -50,-47 -105,-175 -105,-247 0,-15 -7,-36 -15,-46 -7,-10 -19,-42 -26,-70 -6,-29 -22,-65 -35,-80 -13,-16 -24,-42 -24,-58 0,-17 -5,-29 -13,-29 -13,0 -26,24 -68,115 -12,28 -33,64 -45,82 -21,28 -24,43 -24,127 0,77 4,104 20,133 11,21 20,46 20,55 0,10 6,35 14,55 7,21 19,60 25,88 7,27 19,57 28,67 14,15 13,20 -6,51 -32,53 -60,63 -135,49 -35,-7 -85,-12 -112,-12 -27,0 -131,-7 -231,-16 l -182,-17 -58,48 c -32,27 -70,61 -84,76 -14,15 -79,67 -145,117 -65,50 -133,103 -149,119 -17,15 -78,69 -136,120 -57,51 -121,113 -142,138 -70,83 -187,155 -187,115 z"
       id="path15" />
  </g>
</svg>
