<?xml version="1.0" encoding="UTF-8" standalone="no"?>
<svg
   version="1.0"
   width="280.20001pt"
   height="360pt"
   viewBox="0 0 280.20001 360"
   preserveAspectRatio="xMidYMid"
   id="svg1"
   xmlns="http://www.w3.org/2000/svg"
   xmlns:svg="http://www.w3.org/2000/svg">
  <defs
     id="defs1" />
  <metadata
     id="metadata1">
Created by potrace 1.10, written by Peter Selinger 2001-2011
</metadata>
  <g
     transform="matrix(0.05,0,0,-0.05,-84.9,455)"
     fill="#ffffff"
     stroke="none"
     id="g1">
    <path
       d="m 3980,7058 c 0,-1626 -5,-2040 -25,-2033 -14,6 -374,236 -801,512 -428,277 -785,503 -794,503 -18,0 -109,-138 -97,-149 11,-9 1188,-772 1347,-873 l 140,-88 -1026,-5 -1026,-5 6,-95 6,-95 1070,-5 1069,-5 -437,-438 -438,-438 48,-61 c 69,-87 49,-102 523,372 l 435,435 V 3245 1900 h 100 100 v 1372 1372 l 61,-37 c 67,-41 548,-352 1165,-753 218,-142 399,-255 402,-251 3,4 26,38 52,75 l 47,68 -42,32 c -23,18 -354,235 -737,482 l -696,450 1429,10 1429,10 6,95 6,95 H 5806 4310 l 890,890 890,890 -65,65 -65,65 -890,-890 -890,-890 v 2025 2025 h -100 -100 z"
       id="path1" />
  </g>
</svg>
